<svg xmlns="http://www.w3.org/2000/svg" xmlns:xlink="http://www.w3.org/1999/xlink" width="79.64mm" height="24.01mm" viewBox="0 0 225.76 68.05">
  <defs>
    <linearGradient id="a" data-name="Безымянный градиент 2" x1="71.31" y1="9.7" x2="225.76" y2="9.7" gradientUnits="userSpaceOnUse">
      <stop offset="0" stop-color="#e5a631"/>
      <stop offset="0.28" stop-color="#d08312"/>
      <stop offset="0.4" stop-color="#e29e35"/>
      <stop offset="0.55" stop-color="#f5bc5c"/>
      <stop offset="0.63" stop-color="#fcc76b"/>
      <stop offset="0.72" stop-color="#f3ba5a"/>
      <stop offset="0.9" stop-color="#dd972c"/>
      <stop offset="1" stop-color="#d08312"/>
    </linearGradient>
    <linearGradient id="b" x1="172.17" y1="25.27" x2="225.76" y2="25.27" xlink:href="#a"/>
    <linearGradient id="c" x1="142.8" y1="41.2" x2="222.43" y2="41.2" xlink:href="#a"/>
    <linearGradient id="d" x1="117.63" y1="48.01" x2="178.9" y2="48.01" xlink:href="#a"/>
    <linearGradient id="e" x1="94.49" y1="53.19" x2="139.66" y2="53.19" xlink:href="#a"/>
    <linearGradient id="f" x1="71.36" y1="52.87" x2="109.18" y2="52.87" xlink:href="#a"/>
    <linearGradient id="g" x1="0" y1="28.93" x2="11.64" y2="28.93" xlink:href="#a"/>
    <linearGradient id="h" x1="11.86" y1="29.65" x2="15.18" y2="29.65" xlink:href="#a"/>
    <linearGradient id="i" x1="16.13" y1="29.64" x2="24.87" y2="29.64" xlink:href="#a"/>
    <linearGradient id="j" x1="25.23" y1="29.56" x2="33.4" y2="29.56" xlink:href="#a"/>
    <linearGradient id="k" x1="33.6" y1="29.64" x2="43.78" y2="29.64" xlink:href="#a"/>
    <linearGradient id="l" x1="44.69" y1="29.65" x2="54.41" y2="29.65" xlink:href="#a"/>
    <linearGradient id="m" x1="53.98" y1="29.65" x2="57.29" y2="29.65" xlink:href="#a"/>
    <linearGradient id="n" x1="57.27" y1="29.53" x2="67.33" y2="29.53" xlink:href="#a"/>
    <linearGradient id="o" x1="71.64" y1="28.83" x2="75.38" y2="28.83" xlink:href="#a"/>
    <linearGradient id="p" x1="75.56" y1="29.82" x2="85.27" y2="29.82" xlink:href="#a"/>
    <linearGradient id="q" x1="83.1" y1="29.66" x2="92.38" y2="29.66" xlink:href="#a"/>
    <linearGradient id="r" x1="92.18" y1="29.7" x2="101.97" y2="29.7" xlink:href="#a"/>
    <linearGradient id="s" x1="103.44" y1="29.74" x2="112.45" y2="29.74" xlink:href="#a"/>
    <linearGradient id="t" x1="111.73" y1="29.74" x2="121.31" y2="29.74" xlink:href="#a"/>
    <linearGradient id="u" x1="121.08" y1="29.82" x2="130.78" y2="29.82" xlink:href="#a"/>
    <linearGradient id="v" x1="131.11" y1="29.74" x2="134.23" y2="29.74" xlink:href="#a"/>
    <linearGradient id="w" x1="135.24" y1="29.74" x2="143.51" y2="29.74" xlink:href="#a"/>
    <linearGradient id="x" x1="144.79" y1="29.74" x2="154.39" y2="29.74" xlink:href="#a"/>
    <symbol id="logo" data-name="logo" viewBox="0 0 225.76 68.05">
      <g>
        <path d="M71.31,19.4a14.36,14.36,0,0,1,1-1.29,33.05,33.05,0,0,1,3.09-3.47,53.44,53.44,0,0,1,5.81-4.79,48.56,48.56,0,0,1,9-5,69.81,69.81,0,0,1,12.25-3.7c1.18-.22,2.4-.38,3.64-.57l2.49-.3,1-.07C110.75.15,112,.05,113.25,0h0c1.28,0,2.59,0,3.88.08a66.62,66.62,0,0,1,15.43,2.78c5,1.45,9.71,3.19,14.39,4.8s9.28,3.26,13.91,4.53a133.5,133.5,0,0,0,13.81,3.07A134.39,134.39,0,0,0,200.21,17c7.58-.27,14.06-.7,18.46-1.11,2.34-.22,4-.44,5.21-.56,1-.1,1.58-.22,1.77-.24s.13-.07.11,0c-.25.27-.25.2-1.45.44-1.7.26-2.65.36-5.06.65-4,.5-7.07.4-14.89,1.26-3.9.44-8.17.77-12.73.88a98.4,98.4,0,0,1-14.37-.64,109.5,109.5,0,0,1-15-2.76c-5-1.27-9.91-2.89-14.69-4.53-9.47-3.43-18.47-7-27.27-7.85-1.1-.14-2.19-.15-3.27-.23H112l-.78,0c-1.34.13-2.69.17-4,.29A61.74,61.74,0,0,0,95.79,5,77.32,77.32,0,0,0,86.68,8.6a47.82,47.82,0,0,0-6.48,3.73,43.42,43.42,0,0,0-3.87,2.8C75.48,15.82,71.31,19.4,71.31,19.4Z" fill="url(#a)"/>
        <path d="M225.76,15a14.82,14.82,0,0,1-.77,2.12,22.85,22.85,0,0,1-3.52,5.13c-.46.49-1,1-1.5,1.48l-.8.78-.89.75c-.62.5-1.23,1-1.91,1.53s-1.44,1-2.2,1.43a19.58,19.58,0,0,1-2.38,1.35c-.84.42-1.68.86-2.55,1.27a57.73,57.73,0,0,1-17,4.35c-1.88.17-3.69.3-5.41.34L182,35.44c-.74,0-1.45,0-2.13-.07l-1.91-.24c-1.2-.17-2.23-.33-3.09-.42l-2.66-.45,2.69-.38c.85-.08,1.88-.21,3-.35l1.86-.2c.65-.09,1.33-.2,2-.28l4.56-.61c1.6-.29,3.26-.66,5-.93,3.41-.68,13.47-3.35,15.52-4.3,1.56-.67,4.21-1.79,4.66-2.07.73-.37,1.45-.73,2.18-1.08s1.34-.76,2-1.12l1-.55.88-.59c.58-.39,1.16-.75,1.67-1.14a50.75,50.75,0,0,0,4.85-3.95A18.94,18.94,0,0,0,225.76,15Z" fill="url(#b)"/>
        <path d="M212.14,37.7l-4.81.15a152.09,152.09,0,0,1-17.88-.7c-5.19-.58-9.56-1.19-12.55-1.84s-4.72-1.05-4.72-1.05,1.51.75,4.38,1.84a80.78,80.78,0,0,0,12.3,3.66c4.32.8,10.32,1.44,10.32,1.44a32.3,32.3,0,0,1-4.06,1.08,112.36,112.36,0,0,1-18.45,2,85,85,0,0,1-17.53-1.6,81.78,81.78,0,0,1-12-3.36c-1.45-.45-2.51-.93-3.28-1.22l-1.06-.41.91.6c.69.4,1.6,1.07,2.93,1.77A57.66,57.66,0,0,0,158.25,45a76.06,76.06,0,0,0,18.31,3.09A90.44,90.44,0,0,0,198,46.22c2.7-.59,5.38-1.29,8-2.07a68.32,68.32,0,0,0,7.49-2.76l9-4Z" fill="url(#c)"/>
        <path d="M142.71,37.69A13.52,13.52,0,0,0,145,40.37a37.64,37.64,0,0,0,7.7,5.69A48.22,48.22,0,0,0,158.59,49l1.66.7,1.74.65.44.16.6.24c.58.24,1.14.43,1.8.64l4,1.26c3.17,1,6.45,2,10.06,3.08l-1.63.37-2.22.44c-1.47.28-2.85.57-4.45.84l-1.22.21-1.35.17c-.87.12-1.89.2-2.86.29s-2,.12-3.06.19c-.51,0-1.07.06-1.54.06l-.82,0a70.7,70.7,0,0,1-17.89-2.06,52.9,52.9,0,0,1-14-5.77A37.77,37.77,0,0,1,120,44.33c-.83-.82-1.37-1.54-1.78-2l-.6-.71.8.57c.54.36,1.27.94,2.32,1.56a57.72,57.72,0,0,0,8.73,4.74,60.9,60.9,0,0,0,13.64,4.17,81.26,81.26,0,0,0,16.68,1.59s1.53,0,1.17-.27a6.25,6.25,0,0,0-1-.57l-1.76-.85-1.65-.92a54.46,54.46,0,0,1-5.77-3.75,27.26,27.26,0,0,1-6.65-7.08A12,12,0,0,1,142.71,37.69Z" fill="url(#d)"/>
        <path d="M117.63,41.62a12.76,12.76,0,0,0,.93,2.63,28.89,28.89,0,0,0,3.86,6.32,30.78,30.78,0,0,0,3.39,3.73c.7.6,1.38,1.24,2.13,1.85l1.15.91.58.46.22.17.33.23.66.45,4.17,2.86,4.61,3c-.83.1-2.17.19-3.3.27l-3.62.24c-1.32,0-2.73,0-4.22,0l-2.27-.12-1.52-.12a50.38,50.38,0,0,1-14.62-3.7,32.4,32.4,0,0,1-10.2-7,21.9,21.9,0,0,1-4.45-6.55,19.36,19.36,0,0,1-.73-2l-.24-.7.49.61c.32.39.74,1,1.4,1.68a33.5,33.5,0,0,0,5.73,5.32,37.11,37.11,0,0,0,10.06,5.2,66.73,66.73,0,0,0,12.76,2.94s2,.36,1.9.1c0,0-1-1-1-1l-1.13-1.11c-.71-.75-1.33-1.53-2-2.27a36.4,36.4,0,0,1-2.92-4.47,19.53,19.53,0,0,1-2.22-7.24A12.23,12.23,0,0,1,117.63,41.62Z" fill="url(#e)"/>
        <path d="M94.49,44.61a19.8,19.8,0,0,0,.76,2.5A46.25,46.25,0,0,0,98,53.41a31.86,31.86,0,0,0,2.35,3.94c-.07-.07,2,2.72,2.56,3.42,1,1.36,2.66,3.13,4.14,4.84l2.16,2.44-1.4-.25-2.08-.52-2.07-.52c-.72-.2-1.36-.31-2.18-.6l-2.28-.73-.2-.07c-.92-.35-1.91-.78-2.86-1.15-.63-.25-1.26-.51-1.87-.8l-1.76-.86A47.58,47.58,0,0,1,81.76,55a27.22,27.22,0,0,1-2.07-2.1l-1-1.05-.83-1.08c-.54-.71-1.07-1.4-1.56-2.07l-1.28-2a21,21,0,0,1-1.88-3.62c-.23-.55-.48-1.06-.65-1.54s-.31-.93-.45-1.33l-.72-2.54L73,39.91l.82,1.17c.31.42.71.85,1.1,1.32.81.92,1.62,2,2.65,3.09l1.49,1.65.14.14c.56.55,1.17,1.09,1.77,1.66l.84.78,1.15,1c.73.58,1.38,1.22,2.16,1.79a73.54,73.54,0,0,0,10,6.61s2.32,1.39,2.6,1.22-2.23-4.85-2.65-6.18a24.82,24.82,0,0,1-.9-6.91A19.46,19.46,0,0,1,94.49,44.61Z" fill="url(#f)"/>
      </g>
      <g>
        <path d="M6.15,32.54c.84-1.94,2.8-7,3.12-8A2.21,2.21,0,0,0,9.4,24a.36.36,0,0,0-.19-.34,1.75,1.75,0,0,0-.55-.06c-.09,0-.16,0-.16-.08s.09-.12.32-.12c.58,0,1.25.05,1.43.05s.72-.05,1.14-.05c.16,0,.25,0,.25.1s-.06.1-.18.1a1.3,1.3,0,0,0-.7.18c-.19.13-.41.38-.8,1.36-.16.4-.89,2.14-1.64,3.92-.89,2.11-1.55,3.67-1.88,4.38-.41.87-.47,1.1-.61,1.1s-.25-.2-.53-.89L1.72,24.74c-.32-.81-.54-1-1-1.12a2.21,2.21,0,0,0-.55-.06c-.09,0-.12,0-.12-.1s.15-.1.38-.1c.7,0,1.53.05,1.71.05s.8-.05,1.36-.05c.26,0,.39,0,.39.1s0,.1-.15.1a1.63,1.63,0,0,0-.55.08.29.29,0,0,0-.19.29,5.43,5.43,0,0,0,.39,1.2Z" fill="url(#g)"/>
        <path d="M14,30.73c0,1.18,0,2.15.06,2.66s.09.59.47.65a5.19,5.19,0,0,0,.58.06.1.1,0,0,1,.11.1c0,.06-.06.1-.21.1-.71,0-1.55,0-1.61,0s-.87,0-1.27,0c-.13,0-.2,0-.2-.1a.1.1,0,0,1,.1-.1,1.84,1.84,0,0,0,.4-.06c.24-.06.29-.29.33-.65s.08-1.48.08-2.66V28.56c0-1.91,0-2.26,0-2.65s-.14-.61-.41-.67a2.23,2.23,0,0,0-.4,0,.12.12,0,0,1-.1-.1c0-.07.06-.1.21-.1l1.29,0,1.29,0c.15,0,.2,0,.2.1a.12.12,0,0,1-.1.1,1.39,1.39,0,0,0-.32,0c-.35.07-.42.25-.45.68s0,.74,0,2.65Z" fill="url(#h)"/>
        <path d="M17.69,33.14a4.57,4.57,0,0,1-1.56-3.64,4.82,4.82,0,0,1,1.44-3.36,5.33,5.33,0,0,1,3.92-1.32,12.77,12.77,0,0,1,1.86.15,10,10,0,0,0,1.32.19c.13,0,.16.05.16.13s0,.24-.06.69,0,1.09,0,1.26-.07.26-.14.26-.11-.09-.11-.26A1.58,1.58,0,0,0,24,26a4.15,4.15,0,0,0-2.52-.68,4,4,0,0,0-2.89.85,4,4,0,0,0-1.16,3.22A4.5,4.5,0,0,0,22,33.85a2.71,2.71,0,0,0,2.12-.58,2.29,2.29,0,0,0,.5-1c0-.13,0-.18.13-.18s.11.09.11.18a13,13,0,0,1-.3,1.57c-.08.23-.11.28-.32.36a7.46,7.46,0,0,1-2.33.28A6.09,6.09,0,0,1,17.69,33.14Z" fill="url(#i)"/>
        <path d="M30,30.73c0,1.18,0,2.15.06,2.66s.1.59.5.65a4.76,4.76,0,0,0,.58.06.09.09,0,0,1,.1.1c0,.06-.05.1-.2.1-.7,0-1.52,0-1.59,0s-1,0-1.33,0c-.15,0-.2,0-.2-.1a.09.09,0,0,1,.1-.09,1.76,1.76,0,0,0,.38-.06c.26,0,.33-.3.38-.66s.06-1.48.06-2.66V25.56l-1.86,0c-.8,0-1.11.1-1.3.39a2,2,0,0,0-.2.39c0,.1-.08.12-.13.12a.1.1,0,0,1-.09-.1c0-.13.26-1.23.28-1.33s.08-.24.13-.24a5.77,5.77,0,0,0,.57.15c.36,0,.86.06,1,.06h4.85A6.1,6.1,0,0,0,33,25l.37-.06s0,.07,0,.15c0,.37,0,1.25,0,1.4s-.06.16-.12.16-.08-.05-.1-.22v-.13c-.05-.38-.32-.65-1.55-.68l-1.61,0Z" fill="url(#j)"/>
        <path d="M38.7,24.82c2.89,0,5.08,1.75,5.08,4.62a5,5,0,0,1-5.16,5,4.74,4.74,0,0,1-5-4.83A4.9,4.9,0,0,1,38.7,24.82ZM39,34c1.15,0,3.47-.6,3.47-4.16,0-3-1.81-4.5-3.84-4.5s-3.69,1.33-3.69,4C34.93,32.16,36.67,34,39,34Z" fill="url(#k)"/>
        <path d="M45.78,28.56c0-1.91,0-2.26,0-2.65s-.1-.62-.52-.68a3,3,0,0,0-.44,0,.13.13,0,0,1-.1-.1c0-.07.06-.1.2-.1.59,0,1.45,0,1.52,0L48,25a4.26,4.26,0,0,1,2.39.53,2.16,2.16,0,0,1,.89,1.68A3.58,3.58,0,0,1,49.72,30c1.06,1.3,2,2.41,2.69,3.18a2.31,2.31,0,0,0,1.43.85,2.08,2.08,0,0,0,.45.05.11.11,0,0,1,.12.1c0,.07-.07.1-.31.1h-.8a2.53,2.53,0,0,1-1.37-.25,6.35,6.35,0,0,1-1.75-1.8c-.54-.67-1.11-1.46-1.39-1.8a.19.19,0,0,0-.17-.07l-1.64,0c-.06,0-.09,0-.09.1v.29c0,1.19,0,2.14.06,2.65s.12.59.51.65a4.62,4.62,0,0,0,.57.06.09.09,0,0,1,.1.1c0,.06-.06.1-.2.1-.7,0-1.52,0-1.58,0s-.87,0-1.27,0c-.13,0-.2,0-.2-.1a.1.1,0,0,1,.1-.1,1.67,1.67,0,0,0,.39-.06c.25-.06.28-.29.34-.65a26,26,0,0,0,.07-2.66Zm1.11,1a.19.19,0,0,0,.09.16A4.44,4.44,0,0,0,48.4,30a1.71,1.71,0,0,0,1-.22,2.18,2.18,0,0,0,.77-1.88,2.13,2.13,0,0,0-2.22-2.42,7.17,7.17,0,0,0-.92.07.18.18,0,0,0-.1.15Z" fill="url(#l)"/>
        <path d="M56.08,30.73c0,1.18,0,2.15.06,2.66s.09.59.47.65a5,5,0,0,0,.58.06.1.1,0,0,1,.1.1c0,.06-.06.1-.2.1-.72,0-1.55,0-1.61,0s-.87,0-1.27,0c-.13,0-.2,0-.2-.1a.1.1,0,0,1,.1-.1A1.67,1.67,0,0,0,54.5,34c.25-.06.3-.29.34-.65s.07-1.48.07-2.66V28.56c0-1.91,0-2.26,0-2.65s-.13-.61-.41-.67a2.05,2.05,0,0,0-.39,0,.11.11,0,0,1-.1-.1c0-.07.06-.1.2-.1l1.3,0,1.29,0c.14,0,.2,0,.2.1a.13.13,0,0,1-.1.1,1.35,1.35,0,0,0-.32,0c-.35.07-.43.25-.45.68s0,.74,0,2.65Z" fill="url(#m)"/>
        <path d="M61.87,25.24c.16-.4.21-.47.3-.47s.18.17.31.44c.23.53,2.29,5.6,3.08,7.47.47,1.1.82,1.26,1.09,1.35a2.13,2.13,0,0,0,.52.07c.07,0,.16,0,.16.1s-.15.1-.3.1-1.13,0-2,0c-.24,0-.45,0-.45-.09s0,0,.09-.08a.24.24,0,0,0,.12-.33L63.6,30.94c0-.05,0-.07-.11-.07h-3a.13.13,0,0,0-.13.1l-.73,2a2.44,2.44,0,0,0-.19.83c0,.24.22.33.44.33H60c.1,0,.13,0,.13.1s-.08.1-.19.1c-.31,0-1,0-1.16,0s-.77,0-1.3,0c-.16,0-.24,0-.24-.1a.1.1,0,0,1,.11-.1l.38,0c.59-.07.84-.51,1.08-1.13Zm1.43,5.12c.05,0,.05,0,0-.08l-1.27-3.37c-.07-.19-.15-.19-.22,0l-1.2,3.37c0,.06,0,.08.05.08Z" fill="url(#n)"/>
        <path d="M74,30.11c0,1.38,0,2.53.07,3.13,0,.42.14.74.57.8a6.42,6.42,0,0,0,.66.06c.09,0,.12,0,.12.08s-.08.12-.24.12c-.8,0-1.72,0-1.79,0s-1,0-1.43,0c-.16,0-.24,0-.24-.12s0-.08.12-.08a2.22,2.22,0,0,0,.44-.06c.29-.06.36-.38.42-.8.07-.6.07-1.75.07-3.13V27.56c0-2.26,0-2.66,0-3.13s-.18-.73-.5-.81a2.15,2.15,0,0,0-.45-.06c-.06,0-.12,0-.12-.08s.07-.12.23-.12c.49,0,1.41.05,1.48.05s1-.05,1.43-.05c.16,0,.23,0,.23.12s-.06.08-.11.08a2.24,2.24,0,0,0-.37.05c-.39.07-.51.32-.54.82s0,.87,0,3.13Z" fill="url(#o)"/>
        <path d="M80.69,32.82c.7-1.61,2.34-5.81,2.6-6.68a1.75,1.75,0,0,0,.11-.46.29.29,0,0,0-.16-.28,1.79,1.79,0,0,0-.46,0c-.07,0-.13,0-.13-.08s.07-.09.27-.09c.48,0,1,0,1.19,0s.6,0,1,0c.13,0,.21,0,.21.08s0,.09-.15.09a1.14,1.14,0,0,0-.58.14c-.16.11-.35.31-.67,1.13L82.5,29.9c-.74,1.76-1.29,3.06-1.57,3.65s-.39.91-.51.91-.21-.17-.44-.74l-3-7.39c-.27-.67-.45-.81-.88-.93a2.27,2.27,0,0,0-.46,0c-.08,0-.1,0-.1-.09s.12-.08.32-.08c.58,0,1.28,0,1.42,0s.67,0,1.13,0c.22,0,.33,0,.33.08s0,.09-.12.09a1.38,1.38,0,0,0-.46.06.23.23,0,0,0-.16.24,4.9,4.9,0,0,0,.33,1Z" fill="url(#p)"/>
        <path d="M87.35,25.49c.14-.4.19-.47.26-.47s.13.06.27.43,2.1,5.43,2.84,7.27c.44,1.07.79,1.26,1,1.33a1.54,1.54,0,0,0,.48.07c.08,0,.13,0,.13.08s-.11.09-.25.09-1.07,0-1.91,0c-.23,0-.36,0-.36-.09s0-.07.08-.08.15-.13.07-.32l-1.13-3a.1.1,0,0,0-.11-.07H86.15c-.06,0-.09,0-.12.1L85.3,33a2.5,2.5,0,0,0-.17.81c0,.24.26.34.46.34h.12c.09,0,.13,0,.13.08s-.08.09-.19.09l-1,0c-.13,0-.8,0-1.37,0-.16,0-.23,0-.23-.09s.05-.08.11-.08l.35,0c.56-.07.8-.53,1-1.13Zm1.26,4.82c.06,0,.06,0,0-.09L87.5,27q-.09-.27-.18,0l-1.07,3.25c0,.06,0,.09,0,.09Z" fill="url(#q)"/>
        <path d="M93.87,32.66c0,1,.15,1.3.48,1.39a2.66,2.66,0,0,0,.6.07c.07,0,.1,0,.1.08s-.07.09-.22.09c-.69,0-1.18,0-1.29,0s-.62,0-1.17,0c-.12,0-.19,0-.19-.09s0-.08.1-.08a1.72,1.72,0,0,0,.49-.07c.31-.08.37-.43.37-1.53v-6.9c0-.47,0-.6.14-.6s.3.26.42.38,2,2.15,3.87,4.13c1.21,1.28,2.54,2.75,2.93,3.15l-.14-6.12c0-.78-.09-1-.47-1.14a3.14,3.14,0,0,0-.6-.06c-.08,0-.09,0-.09-.09s.09-.08.24-.08c.55,0,1.13,0,1.27,0s.53,0,1,0c.13,0,.22,0,.22.08s0,.09-.13.09a1.33,1.33,0,0,0-.3,0c-.4.09-.45.35-.45,1.07l0,7.06c0,.8,0,.86-.11.86s-.24-.13-.89-.77c-.13-.12-1.89-1.89-3.18-3.27s-2.79-3-3.18-3.45Z" fill="url(#r)"/>
        <path d="M104.5,28.68c0-1.88,0-2.22,0-2.6s-.12-.6-.52-.69a2.73,2.73,0,0,0-.41,0,.09.09,0,0,1-.1-.08c0-.07.06-.09.19-.09.55,0,1.27,0,1.34,0l1.18,0c.14,0,.2,0,.2.09a.09.09,0,0,1-.1.08l-.3,0c-.33.06-.43.27-.45.69s0,.72,0,2.6v.72h0c.21-.23,2.41-2.44,2.85-2.91s.66-.67.66-.87a.23.23,0,0,0-.16-.25c-.06,0-.11-.05-.11-.1s.06-.08.15-.08l.91,0,1.17,0c.13,0,.18,0,.18.08s0,.09-.12.09a2,2,0,0,0-.68.16,4.59,4.59,0,0,0-1.32,1c-.3.29-2.42,2.34-2.68,2.64.32.35,2.85,2.94,3.35,3.39A5.63,5.63,0,0,0,111.54,34a2.24,2.24,0,0,0,.75.15c.09,0,.16,0,.16.08s-.06.09-.27.09h-.62c-.34,0-.57,0-.84,0a2.53,2.53,0,0,1-1.47-.74c-.55-.44-3.13-3.2-3.72-3.91h-.06V30.8c0,1.16,0,2.11.06,2.61s.11.62.48.67l.47,0c.08,0,.1,0,.1.08s-.06.09-.19.09c-.6,0-1.31,0-1.4,0l-1.17,0c-.14,0-.2,0-.2-.09s0-.08.1-.08a2.33,2.33,0,0,0,.37,0c.24,0,.3-.32.35-.67s.06-1.45.06-2.61Z" fill="url(#s)"/>
        <path d="M116.53,25c2.74,0,4.78,1.71,4.78,4.51a4.75,4.75,0,0,1-4.86,4.93,4.53,4.53,0,0,1-4.72-4.73A4.69,4.69,0,0,1,116.53,25Zm.25,9c1.1,0,3.36-.62,3.36-4.13,0-2.89-1.77-4.44-3.7-4.44s-3.55,1.32-3.55,4C112.89,32.2,114.59,34,116.78,34Z" fill="url(#t)"/>
        <path d="M126.21,32.82c.7-1.61,2.33-5.81,2.6-6.68a1.75,1.75,0,0,0,.11-.46.3.3,0,0,0-.16-.28,1.83,1.83,0,0,0-.46,0c-.07,0-.13,0-.13-.08s.07-.09.26-.09c.49,0,1,0,1.2,0s.59,0,1,0c.13,0,.2,0,.2.08s0,.09-.14.09a1.17,1.17,0,0,0-.59.14c-.15.11-.34.31-.67,1.13-.13.34-.74,1.79-1.36,3.27-.74,1.76-1.29,3.06-1.57,3.65s-.39.91-.51.91-.21-.17-.44-.74l-3-7.39c-.27-.67-.46-.81-.88-.93a2.27,2.27,0,0,0-.46,0c-.08,0-.1,0-.1-.09s.12-.08.32-.08c.58,0,1.27,0,1.42,0s.67,0,1.13,0c.22,0,.33,0,.33.08s0,.09-.12.09a1.38,1.38,0,0,0-.46.06.23.23,0,0,0-.16.24,4.32,4.32,0,0,0,.33,1Z" fill="url(#u)"/>
        <path d="M133.05,30.8c0,1.16,0,2.11.06,2.61s.11.62.47.67l.55,0c.07,0,.1,0,.1.08s-.06.09-.2.09c-.67,0-1.43,0-1.49,0l-1.2,0c-.13,0-.19,0-.19-.09s0-.08.09-.08a2.33,2.33,0,0,0,.37,0c.24,0,.3-.32.35-.67S132,32,132,30.8V28.68c0-1.88,0-2.22,0-2.6s-.15-.62-.41-.68a2,2,0,0,0-.38,0,.09.09,0,0,1-.1-.08c0-.07.06-.09.19-.09l1.24,0,1.19,0c.13,0,.19,0,.19.09a.09.09,0,0,1-.09.08l-.31,0c-.33.06-.42.27-.45.69s0,.72,0,2.6Z" fill="url(#v)"/>
        <path d="M136.71,33.16a4.59,4.59,0,0,1-1.47-3.56,4.79,4.79,0,0,1,1.36-3.29A4.93,4.93,0,0,1,140.32,25a10.36,10.36,0,0,1,1.76.14,8.83,8.83,0,0,0,1.24.18c.14,0,.16.06.16.14s0,.24-.06.67,0,1.06,0,1.24,0,.25-.11.25-.09-.08-.09-.25a1.69,1.69,0,0,0-.51-1.23,4.13,4.13,0,0,0-2.44-.68,3.72,3.72,0,0,0-2.8.88,4,4,0,0,0-1.1,3.14,4.37,4.37,0,0,0,4.4,4.41,2.85,2.85,0,0,0,2.12-.6,2.42,2.42,0,0,0,.45-1c0-.13,0-.18.12-.18s.09.09.09.18a12.71,12.71,0,0,1-.27,1.55c-.08.22-.1.25-.32.34a6.9,6.9,0,0,1-2.19.28A5.63,5.63,0,0,1,136.71,33.16Z" fill="url(#w)"/>
        <path d="M153.21,30.8c0,1.16,0,2.11.06,2.61s.11.62.47.67l.55,0c.08,0,.1,0,.1.08s-.06.09-.19.09c-.67,0-1.44,0-1.5,0l-1.2,0c-.13,0-.19,0-.19-.09s0-.08.1-.08a2.2,2.2,0,0,0,.36,0c.25,0,.31-.32.36-.67s.06-1.45.06-2.61V29.53a.08.08,0,0,0-.08-.07H147s-.07,0-.07.07V30.8c0,1.16,0,2.11.06,2.61s.11.62.47.67l.55,0c.07,0,.1,0,.1.08s-.06.09-.2.09c-.67,0-1.43,0-1.5,0l-1.19,0c-.13,0-.19,0-.19-.09s0-.08.09-.08a2.33,2.33,0,0,0,.37,0c.24,0,.3-.32.35-.67s.06-1.45.06-2.61V28.68c0-1.88,0-2.22,0-2.6s-.12-.6-.52-.69a2.86,2.86,0,0,0-.42,0,.09.09,0,0,1-.1-.08c0-.07.06-.09.2-.09.55,0,1.31,0,1.37,0l1.2,0c.13,0,.19,0,.19.09a.09.09,0,0,1-.09.08l-.31,0c-.33.06-.42.27-.45.69s0,.72,0,2.6v.25c0,.06,0,.08.07.08h5.16a.07.07,0,0,0,.08-.08v-.25c0-1.88,0-2.22,0-2.6s-.12-.6-.52-.69a2.86,2.86,0,0,0-.42,0,.09.09,0,0,1-.09-.08c0-.07.06-.09.19-.09.55,0,1.32,0,1.38,0l1.19,0c.14,0,.2,0,.2.09a.09.09,0,0,1-.1.08l-.31,0c-.33.06-.42.27-.45.69s0,.72,0,2.6Z" fill="url(#x)"/>
      </g>
    </symbol>
  </defs>
  <title>pack_10.10_ [преобразованный]</title>
  <use width="225.76" height="68.05" xlink:href="#logo"/>
</svg>
