<svg xmlns="http://www.w3.org/2000/svg" width="79.64mm" height="24.01mm" viewBox="0 0 225.76 68.05">
  <title>logo-b</title>
  <g>
    <g>
      <path d="M161,90.24s.29-.46.94-1.29A35.4,35.4,0,0,1,165,85.48a53.44,53.44,0,0,1,5.81-4.79,48.56,48.56,0,0,1,9-5A70.94,70.94,0,0,1,192.06,72c1.19-.22,2.41-.38,3.64-.57l2.49-.3,1-.07c1.23-.08,2.46-.19,3.73-.24h0c1.28,0,2.59,0,3.89.08a66.81,66.81,0,0,1,15.43,2.78c4.95,1.45,9.7,3.19,14.39,4.8s9.27,3.26,13.9,4.54a136.08,136.08,0,0,0,13.81,3.06,133.58,133.58,0,0,0,25.53,1.72c7.58-.27,14.07-.7,18.47-1.11,2.33-.22,4-.44,5.2-.55,1-.11,1.59-.22,1.77-.24s.14-.08.11,0c-.25.28-.24.2-1.45.45-1.7.25-2.64.35-5.06.65-4,.49-7.07.39-14.89,1.25-3.9.44-8.17.77-12.73.88a99.77,99.77,0,0,1-14.37-.63,111.36,111.36,0,0,1-15-2.77c-5-1.27-9.91-2.89-14.68-4.53-9.48-3.43-18.47-7-27.28-7.84-1.1-.15-2.19-.16-3.27-.24h-4.95l-.78,0c-1.34.13-2.69.17-4,.29a61.26,61.26,0,0,0-11.47,2.39,76.37,76.37,0,0,0-9.11,3.64,46.73,46.73,0,0,0-6.48,3.74A39.31,39.31,0,0,0,166,86C165.12,86.67,161,90.24,161,90.24Z" transform="translate(-89.64 -70.84)" fill="#1d1d1b"/>
      <path d="M315.4,85.85a15,15,0,0,1-.77,2.11,22.87,22.87,0,0,1-3.52,5.14c-.46.48-1,1-1.5,1.47l-.79.78-.9.75c-.61.5-1.23,1-1.91,1.54l-2.19,1.43a21.1,21.1,0,0,1-2.39,1.34c-.84.42-1.68.86-2.55,1.27a57.26,57.26,0,0,1-17,4.35c-1.87.17-3.69.31-5.41.34l-4.82-.09c-.75,0-1.46,0-2.13-.07l-1.92-.24c-1.2-.17-2.23-.32-3.08-.42l-2.66-.44,2.68-.39c.85-.07,1.88-.21,3.05-.35l1.86-.2c.65-.09,1.33-.2,2-.28l4.57-.61c1.59-.29,3.25-.66,5-.93,3.42-.68,13.47-3.35,15.52-4.3,1.56-.67,4.22-1.79,4.67-2.06.72-.38,1.45-.74,2.17-1.08s1.35-.77,2-1.13l1-.55.89-.58c.57-.39,1.15-.76,1.67-1.15a51.7,51.7,0,0,0,4.84-4A18.24,18.24,0,0,0,315.4,85.85Z" transform="translate(-89.64 -70.84)" fill="#1d1d1b"/>
      <path d="M301.78,108.54l-4.8.15a149.86,149.86,0,0,1-17.88-.7c-5.2-.58-9.57-1.18-12.56-1.84s-4.72-1.05-4.72-1.05,1.52.75,4.39,1.84a79.12,79.12,0,0,0,12.29,3.66c4.32.8,10.32,1.44,10.32,1.44a31.76,31.76,0,0,1-4.06,1.08,112.24,112.24,0,0,1-18.45,2,85,85,0,0,1-17.53-1.6,81.41,81.41,0,0,1-12-3.35c-1.46-.46-2.52-.94-3.29-1.22l-1.06-.42.91.6c.69.4,1.61,1.07,2.94,1.77a57.53,57.53,0,0,0,11.6,4.89,76.06,76.06,0,0,0,18.32,3.09,90.4,90.4,0,0,0,21.39-1.85c2.7-.59,5.39-1.29,8-2.07a68.32,68.32,0,0,0,7.49-2.76l9-4Z" transform="translate(-89.64 -70.84)" fill="#1d1d1b"/>
      <path d="M232.35,108.53a14,14,0,0,0,2.29,2.68,37.64,37.64,0,0,0,7.7,5.69,47.67,47.67,0,0,0,5.9,2.95l1.65.7,1.75.65.44.16.59.24c.58.24,1.15.43,1.8.64l4,1.26c3.17,1,6.45,2,10.06,3.08l-1.62.37-2.23.44c-1.46.28-2.85.57-4.45.85l-1.21.2-1.36.17c-.87.13-1.89.2-2.86.29s-2,.13-3.06.19c-.5,0-1.06.06-1.53.06l-.83,0a70.3,70.3,0,0,1-17.89-2.06,53,53,0,0,1-14-5.77,37.77,37.77,0,0,1-7.86-6.17c-.83-.82-1.37-1.54-1.78-2l-.6-.72.81.57c.53.37,1.26.94,2.31,1.56a57,57,0,0,0,8.74,4.74,61.15,61.15,0,0,0,13.63,4.18,82.07,82.07,0,0,0,16.69,1.58s1.53,0,1.16-.27a5.67,5.67,0,0,0-1-.56l-1.75-.85-1.65-.93a52.16,52.16,0,0,1-5.78-3.75,27.43,27.43,0,0,1-6.65-7.07A12,12,0,0,1,232.35,108.53Z" transform="translate(-89.64 -70.84)" fill="#1d1d1b"/>
      <path d="M207.27,112.46a12.93,12.93,0,0,0,.93,2.64,29.5,29.5,0,0,0,3.86,6.31,31.63,31.63,0,0,0,3.39,3.73c.7.6,1.38,1.24,2.13,1.85l1.15.91.58.46.22.18.33.22.66.45,4.18,2.86,4.6,3c-.83.1-2.17.19-3.3.27l-3.62.25c-1.31,0-2.73,0-4.22,0l-2.27-.12-1.51-.12a50.45,50.45,0,0,1-14.63-3.7,32.51,32.51,0,0,1-10.2-7,22.1,22.1,0,0,1-4.45-6.55c-.38-.83-.56-1.52-.73-2l-.23-.7.48.61c.32.4.74,1,1.4,1.69a33.92,33.92,0,0,0,5.73,5.31,37.11,37.11,0,0,0,10.06,5.2,67.67,67.67,0,0,0,12.76,3s2,.35,1.9.09c0,0-1-1-1-1l-1.12-1.11c-.72-.75-1.34-1.53-2-2.27a34.44,34.44,0,0,1-2.91-4.47,19.77,19.77,0,0,1-2.23-7.24A12.29,12.29,0,0,1,207.27,112.46Z" transform="translate(-89.64 -70.84)" fill="#1d1d1b"/>
      <path d="M184.14,115.45a20.33,20.33,0,0,0,.75,2.51,46.76,46.76,0,0,0,2.72,6.29,31.14,31.14,0,0,0,2.35,3.94c-.06-.07,2,2.73,2.56,3.42,1,1.36,2.66,3.13,4.14,4.84l2.16,2.44-1.4-.25-2.07-.51-2.08-.53c-.72-.19-1.36-.31-2.18-.6l-2.27-.73-.2-.07c-.93-.35-1.92-.78-2.86-1.15-.64-.25-1.27-.51-1.88-.8l-1.76-.86a47.26,47.26,0,0,1-10.72-7.53,29.17,29.17,0,0,1-2.07-2.1l-1-1.05-.83-1.08c-.54-.71-1.07-1.39-1.55-2.07l-1.29-2a21,21,0,0,1-1.88-3.62c-.23-.55-.48-1-.64-1.54s-.32-.93-.45-1.33c-.46-1.62-.73-2.54-.73-2.54l1.68,2.22.82,1.17c.31.42.72.85,1.11,1.32.81.92,1.61,2,2.65,3.09l1.48,1.65.14.15c.57.54,1.17,1.08,1.77,1.65l.84.78,1.16,1c.72.57,1.38,1.21,2.16,1.78a74,74,0,0,0,10,6.61s2.33,1.39,2.6,1.23-2.23-4.86-2.65-6.19a24.8,24.8,0,0,1-.9-6.9A18.25,18.25,0,0,1,184.14,115.45Z" transform="translate(-89.64 -70.84)" fill="#1d1d1b"/>
    </g>
    <g>
      <path d="M95.79,103.38c.85-1.94,2.8-7,3.12-8a1.91,1.91,0,0,0,.14-.55.36.36,0,0,0-.19-.33,1.85,1.85,0,0,0-.56-.06c-.09,0-.16,0-.16-.09s.09-.12.32-.12c.59,0,1.26,0,1.43,0s.72,0,1.14,0c.16,0,.25,0,.25.11s-.06.1-.18.1a1.36,1.36,0,0,0-.7.17c-.19.13-.41.38-.8,1.36-.16.41-.89,2.14-1.63,3.92-.9,2.11-1.55,3.68-1.89,4.39-.41.86-.47,1.1-.61,1.1s-.25-.21-.53-.9l-3.57-8.87c-.33-.81-.54-1-1.06-1.11a2.13,2.13,0,0,0-.55-.06c-.09,0-.12,0-.12-.1s.15-.11.38-.11c.7,0,1.54,0,1.71,0s.8,0,1.36,0c.26,0,.39,0,.39.11s0,.1-.14.1a1.69,1.69,0,0,0-.56.07.29.29,0,0,0-.19.29A5.47,5.47,0,0,0,93,96Z" transform="translate(-89.64 -70.84)" fill="#1d1d1b"/>
      <path d="M103.61,101.57c0,1.19,0,2.15,0,2.66,0,.36.09.59.47.65a5.11,5.11,0,0,0,.59.06.1.1,0,0,1,.1.1c0,.06-.06.1-.21.1-.71,0-1.54,0-1.6,0s-.88,0-1.27,0c-.13,0-.21,0-.21-.1a.1.1,0,0,1,.11-.1,1.85,1.85,0,0,0,.39-.06c.25-.06.29-.29.34-.65,0-.51.07-1.47.07-2.66V99.4c0-1.91,0-2.26,0-2.65s-.13-.61-.41-.66a2.43,2.43,0,0,0-.39,0,.12.12,0,0,1-.11-.1c0-.07.06-.1.21-.1l1.3,0,1.28,0c.15,0,.21,0,.21.1a.13.13,0,0,1-.11.1,1.44,1.44,0,0,0-.32,0c-.35.07-.42.25-.45.68s0,.74,0,2.65Z" transform="translate(-89.64 -70.84)" fill="#1d1d1b"/>
      <path d="M107.33,104a4.6,4.6,0,0,1-1.56-3.64A4.84,4.84,0,0,1,107.22,97a5.31,5.31,0,0,1,3.91-1.31,12.9,12.9,0,0,1,1.87.14,9.62,9.62,0,0,0,1.31.19c.13,0,.16.06.16.13s0,.24-.06.69,0,1.09,0,1.26-.07.26-.14.26-.1-.08-.1-.26a1.61,1.61,0,0,0-.54-1.23,4.28,4.28,0,0,0-2.53-.68,3.56,3.56,0,0,0-4,4.07,4.48,4.48,0,0,0,4.62,4.45,2.75,2.75,0,0,0,2.12-.57,2.37,2.37,0,0,0,.5-1c0-.13,0-.18.13-.18s.12.09.12.18a13.07,13.07,0,0,1-.31,1.57c-.07.24-.1.28-.32.37a7.78,7.78,0,0,1-2.32.27A6.1,6.1,0,0,1,107.33,104Z" transform="translate(-89.64 -70.84)" fill="#1d1d1b"/>
      <path d="M119.62,101.57c0,1.19,0,2.15,0,2.66,0,.36.11.59.5.65a4.9,4.9,0,0,0,.59.06.09.09,0,0,1,.1.1c0,.06-.06.1-.21.1-.7,0-1.52,0-1.59,0s-1,0-1.33,0c-.14,0-.2,0-.2-.1a.09.09,0,0,1,.1-.09,1.65,1.65,0,0,0,.38,0c.26-.06.34-.31.38-.67.06-.51.06-1.47.06-2.66V96.4l-1.86,0c-.8,0-1.11.1-1.29.39a2,2,0,0,0-.21.39c0,.11-.07.12-.13.12a.1.1,0,0,1-.09-.1c0-.13.26-1.23.28-1.33s.09-.23.13-.23a4.41,4.41,0,0,0,.57.14c.36,0,.86.06,1,.06h4.84a6.1,6.1,0,0,0,.92-.06l.37-.06c.06,0,.06.07.06.15,0,.37,0,1.26,0,1.4s0,.16-.11.16-.09,0-.11-.22v-.13c0-.37-.32-.65-1.55-.68l-1.6,0Z" transform="translate(-89.64 -70.84)" fill="#1d1d1b"/>
      <path d="M128.34,95.67c2.89,0,5.08,1.75,5.08,4.61a5,5,0,0,1-5.15,5,4.74,4.74,0,0,1-5-4.83A4.89,4.89,0,0,1,128.34,95.67Zm.29,9.13c1.15,0,3.48-.61,3.48-4.17,0-2.95-1.82-4.5-3.84-4.5s-3.7,1.33-3.7,4C124.57,103,126.31,104.8,128.63,104.8Z" transform="translate(-89.64 -70.84)" fill="#1d1d1b"/>
      <path d="M135.42,99.4c0-1.91,0-2.26,0-2.65s-.11-.62-.53-.68l-.44,0a.13.13,0,0,1-.1-.1c0-.07.06-.1.2-.1.59,0,1.45,0,1.52,0l1.61,0a4.24,4.24,0,0,1,2.39.53,2.18,2.18,0,0,1,.89,1.68,3.6,3.6,0,0,1-1.57,2.81c1,1.3,1.94,2.42,2.68,3.18a2.4,2.4,0,0,0,1.43.86,2.61,2.61,0,0,0,.46,0,.11.11,0,0,1,.11.1c0,.07-.07.1-.3.1h-.81a2.65,2.65,0,0,1-1.37-.24,6.71,6.71,0,0,1-1.75-1.81c-.54-.67-1.11-1.46-1.39-1.8a.21.21,0,0,0-.17-.07l-1.64,0c-.06,0-.09,0-.09.1v.29c0,1.19,0,2.14.06,2.65,0,.36.12.59.51.65a4.83,4.83,0,0,0,.57.06.1.1,0,0,1,.11.1c0,.06-.06.1-.21.1-.7,0-1.52,0-1.58,0s-.87,0-1.27,0c-.13,0-.2,0-.2-.1a.1.1,0,0,1,.1-.1,1.84,1.84,0,0,0,.4-.06c.24-.06.27-.29.33-.65a25.9,25.9,0,0,0,.07-2.66Zm1.11,1a.18.18,0,0,0,.09.16,4.44,4.44,0,0,0,1.42.19,1.68,1.68,0,0,0,1-.22,2.18,2.18,0,0,0,.78-1.88,2.14,2.14,0,0,0-2.22-2.42,5.3,5.3,0,0,0-.92.08.15.15,0,0,0-.11.14Z" transform="translate(-89.64 -70.84)" fill="#1d1d1b"/>
      <path d="M145.72,101.57c0,1.19,0,2.15.06,2.66.05.36.09.59.47.65a5.19,5.19,0,0,0,.58.06.1.1,0,0,1,.11.1c0,.06-.06.1-.21.1-.71,0-1.55,0-1.61,0s-.87,0-1.27,0c-.13,0-.2,0-.2-.1a.1.1,0,0,1,.1-.1,1.84,1.84,0,0,0,.4-.06c.24-.06.29-.29.33-.65.06-.51.07-1.47.07-2.66V99.4c0-1.91,0-2.26,0-2.65s-.14-.61-.41-.66a2.4,2.4,0,0,0-.4,0,.11.11,0,0,1-.1-.1c0-.07.06-.1.2-.1l1.3,0,1.29,0c.15,0,.2,0,.2.1a.12.12,0,0,1-.1.1,1.39,1.39,0,0,0-.32,0c-.35.07-.42.25-.45.68s0,.74,0,2.65Z" transform="translate(-89.64 -70.84)" fill="#1d1d1b"/>
      <path d="M151.51,96.09c.16-.41.22-.48.3-.48s.18.17.31.45c.23.52,2.29,5.6,3.08,7.46.47,1.1.82,1.26,1.1,1.35a1.72,1.72,0,0,0,.51.07c.07,0,.16,0,.16.1s-.15.1-.29.1-1.14,0-2,0c-.25,0-.46,0-.46-.08s0-.06.09-.09a.22.22,0,0,0,.12-.33l-1.15-2.82c0-.06-.05-.08-.12-.08h-3a.15.15,0,0,0-.14.1l-.73,2a2.76,2.76,0,0,0-.19.83c0,.24.22.33.44.33h.12c.1,0,.13,0,.13.1s-.07.1-.19.1c-.31,0-1,0-1.15,0s-.78,0-1.3,0c-.16,0-.25,0-.25-.1a.11.11,0,0,1,.12-.1,2.75,2.75,0,0,0,.38,0c.58-.07.83-.5,1.08-1.13Zm1.43,5.12c.06,0,.06,0,0-.09l-1.27-3.37c-.07-.19-.14-.19-.22,0l-1.19,3.37c0,.06,0,.09,0,.09Z" transform="translate(-89.64 -70.84)" fill="#1d1d1b"/>
      <path d="M163.6,101c0,1.39,0,2.53.08,3.14,0,.42.13.73.57.79a6,6,0,0,0,.65.06c.09,0,.12,0,.12.09s-.07.11-.23.11c-.81,0-1.73,0-1.8,0s-1,0-1.43,0c-.16,0-.23,0-.23-.11s0-.09.11-.09a2.22,2.22,0,0,0,.44-.06c.29-.06.37-.37.42-.79.08-.61.08-1.75.08-3.14V98.4c0-2.26,0-2.66,0-3.13s-.18-.73-.5-.8a1.64,1.64,0,0,0-.45-.06c-.06,0-.12,0-.12-.09s.08-.12.24-.12c.48,0,1.4,0,1.47,0s1,0,1.43,0c.16,0,.24,0,.24.12s-.06.09-.12.09a2.12,2.12,0,0,0-.37,0c-.39.07-.51.32-.54.82s0,.87,0,3.13Z" transform="translate(-89.64 -70.84)" fill="#1d1d1b"/>
      <path d="M170.33,103.67c.71-1.62,2.34-5.82,2.61-6.69a1.75,1.75,0,0,0,.11-.46.3.3,0,0,0-.16-.27,1.54,1.54,0,0,0-.47,0c-.07,0-.13,0-.13-.08s.07-.09.27-.09c.49,0,1.05,0,1.19,0s.6,0,.95,0c.14,0,.21,0,.21.08s0,.09-.15.09a1.14,1.14,0,0,0-.58.14c-.16.11-.34.31-.67,1.13-.14.34-.74,1.79-1.37,3.27-.74,1.76-1.29,3.06-1.57,3.65s-.39.91-.51.91-.2-.16-.44-.74l-3-7.39c-.27-.67-.45-.8-.88-.92a1.83,1.83,0,0,0-.46,0,.09.09,0,0,1-.1-.09c0-.07.13-.08.32-.08.58,0,1.28,0,1.42,0s.67,0,1.14,0c.22,0,.33,0,.33.08s0,.09-.13.09a1.38,1.38,0,0,0-.46.06.24.24,0,0,0-.16.24,4.9,4.9,0,0,0,.33,1Z" transform="translate(-89.64 -70.84)" fill="#1d1d1b"/>
      <path d="M177,96.33c.15-.4.19-.47.27-.47s.12.06.27.43,2.09,5.44,2.83,7.27c.44,1.07.79,1.26,1,1.33a1.65,1.65,0,0,0,.49.08c.07,0,.12,0,.12.07s-.11.1-.24.1-1.08,0-1.92,0c-.23,0-.36,0-.36-.08a.09.09,0,0,1,.08-.09c.08,0,.15-.13.08-.32l-1.14-3a.1.1,0,0,0-.11-.07H175.8a.15.15,0,0,0-.13.1l-.73,2.13a2.5,2.5,0,0,0-.17.81c0,.24.26.35.47.35h.12c.08,0,.12,0,.12.07s-.07.1-.18.1c-.3,0-.82,0-1,0s-.81,0-1.38,0c-.16,0-.23,0-.23-.1s0-.07.11-.07l.35,0c.56-.07.81-.53,1-1.13Zm1.27,4.82c.06,0,.06,0,0-.09l-1.15-3.25c-.06-.18-.12-.18-.19,0l-1.07,3.25c0,.06,0,.09,0,.09Z" transform="translate(-89.64 -70.84)" fill="#1d1d1b"/>
      <path d="M183.51,103.5c0,1,.15,1.3.48,1.39a2.81,2.81,0,0,0,.61.08c.06,0,.09,0,.09.07s-.07.1-.21.1c-.7,0-1.19,0-1.3,0s-.62,0-1.16,0c-.13,0-.2,0-.2-.1s0-.07.1-.07a1.87,1.87,0,0,0,.5-.08c.3-.08.36-.43.36-1.53v-6.9c0-.47,0-.6.14-.6s.3.26.43.39,2,2.14,3.87,4.13c1.2,1.27,2.53,2.74,2.92,3.14L190,97.4c0-.78-.1-1.05-.48-1.14a3.14,3.14,0,0,0-.6-.06c-.08,0-.09,0-.09-.09s.09-.08.24-.08c.55,0,1.13,0,1.27,0s.53,0,1,0c.14,0,.22,0,.22.08s-.05.09-.13.09a1.26,1.26,0,0,0-.29,0c-.41.09-.46.35-.46,1.08l0,7c0,.8,0,.86-.11.86s-.24-.13-.89-.77c-.13-.12-1.89-1.89-3.18-3.27s-2.79-3-3.17-3.45Z" transform="translate(-89.64 -70.84)" fill="#1d1d1b"/>
      <path d="M194.14,99.52c0-1.88,0-2.21,0-2.6s-.12-.6-.53-.69a2.63,2.63,0,0,0-.41,0,.09.09,0,0,1-.1-.08c0-.07.06-.09.2-.09.54,0,1.26,0,1.34,0l1.18,0c.13,0,.19,0,.19.09a.09.09,0,0,1-.09.08l-.31,0c-.33.06-.43.27-.45.69s0,.72,0,2.6v.72h0c.21-.22,2.42-2.44,2.85-2.91s.66-.66.66-.87a.24.24,0,0,0-.16-.25c-.06,0-.11,0-.11-.1s.06-.08.15-.08l.91,0,1.17,0c.14,0,.18,0,.18.08s0,.09-.12.09a1.78,1.78,0,0,0-.68.17,4.23,4.23,0,0,0-1.31,1c-.31.29-2.43,2.34-2.68,2.64.31.35,2.85,2.94,3.35,3.4a5.55,5.55,0,0,0,1.81,1.37,2.39,2.39,0,0,0,.76.16c.08,0,.15,0,.15.07s-.06.1-.26.1h-.63a7.23,7.23,0,0,1-.84,0,2.52,2.52,0,0,1-1.47-.73c-.55-.45-3.13-3.21-3.71-3.92h-.06v1.18c0,1.16,0,2.11.06,2.62,0,.35.11.61.47.66.17,0,.37,0,.48,0s.09,0,.09.07-.06.1-.19.1c-.6,0-1.3,0-1.4,0s-.81,0-1.17,0c-.13,0-.2,0-.2-.1s0-.07.1-.07a2.35,2.35,0,0,0,.37,0c.24,0,.3-.31.35-.66.06-.51.06-1.46.06-2.62Z" transform="translate(-89.64 -70.84)" fill="#1d1d1b"/>
      <path d="M206.17,95.86c2.74,0,4.79,1.71,4.79,4.52a4.75,4.75,0,0,1-4.86,4.92,4.54,4.54,0,0,1-4.73-4.73A4.69,4.69,0,0,1,206.17,95.86Zm.26,9c1.09,0,3.36-.63,3.36-4.14,0-2.89-1.78-4.44-3.7-4.44s-3.56,1.32-3.56,4C202.53,103,204.23,104.85,206.43,104.85Z" transform="translate(-89.64 -70.84)" fill="#1d1d1b"/>
      <path d="M215.85,103.67c.7-1.62,2.34-5.82,2.6-6.69a1.42,1.42,0,0,0,.11-.46.29.29,0,0,0-.15-.27,1.54,1.54,0,0,0-.47,0c-.07,0-.13,0-.13-.08s.07-.09.27-.09c.48,0,1,0,1.19,0s.6,0,.95,0c.13,0,.21,0,.21.08s-.05.09-.15.09a1.14,1.14,0,0,0-.58.14c-.16.11-.34.31-.67,1.13l-1.37,3.27c-.74,1.76-1.29,3.06-1.57,3.65s-.39.91-.51.91-.21-.16-.44-.74l-3-7.39c-.27-.67-.45-.8-.88-.92a1.83,1.83,0,0,0-.46,0,.09.09,0,0,1-.1-.09c0-.07.12-.08.32-.08.58,0,1.28,0,1.42,0s.67,0,1.14,0c.21,0,.32,0,.32.08s0,.09-.12.09a1.38,1.38,0,0,0-.46.06.24.24,0,0,0-.16.24,4.9,4.9,0,0,0,.33,1Z" transform="translate(-89.64 -70.84)" fill="#1d1d1b"/>
      <path d="M222.69,101.64c0,1.16,0,2.11.06,2.62,0,.35.11.61.47.66.18,0,.44,0,.55,0s.1,0,.1.07-.06.1-.19.1c-.67,0-1.44,0-1.5,0s-.83,0-1.2,0c-.13,0-.19,0-.19-.1s0-.07.1-.07a2.23,2.23,0,0,0,.36,0c.25,0,.31-.31.36-.66.06-.51.06-1.46.06-2.62V99.52c0-1.88,0-2.21,0-2.6s-.14-.61-.41-.67a1.47,1.47,0,0,0-.38,0,.09.09,0,0,1-.1-.08c0-.07.06-.09.2-.09l1.23,0,1.19,0c.14,0,.2,0,.2.09a.09.09,0,0,1-.1.08l-.31,0c-.32.06-.42.27-.45.69s0,.72,0,2.6Z" transform="translate(-89.64 -70.84)" fill="#1d1d1b"/>
      <path d="M226.35,104a4.59,4.59,0,0,1-1.47-3.56,4.79,4.79,0,0,1,1.36-3.29A5,5,0,0,1,230,95.86a11.32,11.32,0,0,1,1.76.14,11.24,11.24,0,0,0,1.25.19c.13,0,.15.06.15.13s0,.24-.06.67,0,1.06,0,1.24,0,.26-.11.26-.1-.09-.1-.26a1.69,1.69,0,0,0-.51-1.23,4.13,4.13,0,0,0-2.44-.68,3.74,3.74,0,0,0-2.8.88,4,4,0,0,0-1.09,3.14,4.37,4.37,0,0,0,4.39,4.41,2.84,2.84,0,0,0,2.12-.6,2.32,2.32,0,0,0,.45-1c0-.14.05-.19.12-.19s.09.09.09.19a13,13,0,0,1-.27,1.54c-.07.23-.1.25-.32.35a7.18,7.18,0,0,1-2.19.27A5.67,5.67,0,0,1,226.35,104Z" transform="translate(-89.64 -70.84)" fill="#1d1d1b"/>
      <path d="M242.85,101.64c0,1.16,0,2.11.06,2.62,0,.35.11.61.48.66l.55,0c.07,0,.09,0,.09.07s-.06.1-.19.1c-.67,0-1.44,0-1.5,0s-.83,0-1.19,0c-.14,0-.2,0-.2-.1s0-.07.1-.07a2.23,2.23,0,0,0,.36,0c.25,0,.31-.31.36-.66.06-.51.06-1.46.06-2.62v-1.26a.08.08,0,0,0-.07-.08h-5.17a.07.07,0,0,0-.07.08v1.26c0,1.16,0,2.11.06,2.62,0,.35.11.61.47.66.18,0,.44,0,.55,0s.1,0,.1.07-.06.1-.2.1c-.66,0-1.43,0-1.49,0s-.83,0-1.2,0c-.13,0-.19,0-.19-.1s0-.07.1-.07a2.23,2.23,0,0,0,.36,0c.25,0,.31-.31.36-.66.06-.51.06-1.46.06-2.62V99.52c0-1.88,0-2.21,0-2.6s-.12-.6-.52-.69a2.86,2.86,0,0,0-.42,0,.09.09,0,0,1-.09-.08c0-.07.06-.09.19-.09.55,0,1.32,0,1.38,0l1.19,0c.14,0,.2,0,.2.09a.09.09,0,0,1-.1.08l-.31,0c-.32.06-.42.27-.45.69s0,.72,0,2.6v.26a.06.06,0,0,0,.07.07h5.17a.06.06,0,0,0,.07-.07v-.26c0-1.88,0-2.21,0-2.6s-.12-.6-.52-.69a2.73,2.73,0,0,0-.41,0,.09.09,0,0,1-.1-.08c0-.07.06-.09.19-.09.55,0,1.32,0,1.38,0l1.19,0c.14,0,.2,0,.2.09a.09.09,0,0,1-.1.08l-.3,0c-.33.06-.43.27-.45.69s0,.72,0,2.6Z" transform="translate(-89.64 -70.84)" fill="#1d1d1b"/>
    </g>
  </g>
</svg>
