<?xml version="1.0" encoding="UTF-8"?>
<svg width="25px" height="22px" viewBox="0 0 25 22" version="1.1" xmlns="http://www.w3.org/2000/svg" xmlns:xlink="http://www.w3.org/1999/xlink">
    <g id="Catalog" stroke="none" stroke-width="1" fill="none" fill-rule="evenodd">
        <g id="Catalog_Filter_Price" transform="translate(-1193.000000, -885.000000)" fill="#FC265A" fill-rule="nonzero">
            <path d="M1205.6494,907 C1205.4502,907 1205.251,907 1205.15139,906.899083 C1205.15139,906.899083 1205.05179,906.798165 1205.05179,906.798165 L1204.75299,906.59633 C1203.95618,906.091743 1202.16335,904.779817 1200.86853,903.770642 C1196.18725,900.036697 1193.79681,897.412844 1193.39841,895.394495 C1193.1992,894.688073 1193.0996,893.880734 1193,893.073394 C1193,890.853211 1193.79681,888.733945 1195.29084,887.220183 C1196.58566,885.807339 1198.37849,885.100917 1200.17131,885.100917 C1202.26295,885.100917 1204.15538,885.908257 1205.4502,887.422018 C1206.74502,885.908257 1208.63745,885 1210.72908,885 L1210.82869,885 C1214.71315,885 1218,888.431193 1218,892.770642 C1218,893.577982 1217.9004,894.385321 1217.7012,895.192661 C1217.30279,897.110092 1214.91235,899.93578 1210.43028,903.669725 C1208.73705,905.082569 1207.24303,906.192661 1206.24701,906.899083 C1206.04781,906.899083 1205.84861,907 1205.6494,907 Z" id="Shape-Copy-3"></path>
        </g>
    </g>
</svg>